# xmcd CD database file
# Copyright (C) 1997 Ti Kan
#
# Track frame offsets:
#  183
#  9558
#  21068
#  32380
#  43005
#  52660
#  64778
#  81980
#  93458
#  103958
#  117758
#  135645
#  149970
#  159183
#  168645
#  178183
#  188333
#  199258
#  215608
#  232208
#
# Disc length: 3207 seconds
#
# Revision: 1
# Processed by: cddbd v1.4b41PL1 Copyright (c) Steve Scherf et al.
# Submitted via: CDWizzard Release:4.30
#
DISCID=190c8514
DTITLE=Red River Bluegrass Band - Country and Western: 20 All-Time Hits
DYEAR=1900
DGENRE=
TTITLE0=Cripple Creek
TTITLE1=All The Good Times
TTITLE2=y Old Kentucky Home
TTITLE3=Red River Valley
TTITLE4=Old Folks At Home
TTITLE5=East Virginia
TTITLE6=On Top OIf Old Smokey
TTITLE7=Willow Tree
TTITLE8=Yellow Rose Of Texas
TTITLE9=Frankie and Johnny
TTITLE10=Banks Of The Ohio
TTITLE11=There's A Tavern In The Town
TTITLE12=Home On The Range
TTITLE13=She'll Be Coming 'Round The Mountain 
TTITLE14=Portland Town
TTITLE15=Boll Weevil
TTITLE16=Little Maggie
TTITLE17=All My Sorrows
TTITLE18=Careless Love
TTITLE19=Oh, Susanna
EXTD=
EXTT0=
EXTT1=
EXTT2=
EXTT3=
EXTT4=
EXTT5=
EXTT6=
EXTT7=
EXTT8=
EXTT9=
EXTT10=
EXTT11=
EXTT12=
EXTT13=
EXTT14=
EXTT15=
EXTT16=
EXTT17=
EXTT18=
EXTT19=
PLAYORDER=
